<mxfile host="Electron" modified="2023-11-30T12:14:05.914Z" agent="Mozilla/5.0 (X11; Linux x86_64) AppleWebKit/537.36 (KHTML, like Gecko) draw.io/22.1.2 Chrome/114.0.5735.289 Electron/25.9.4 Safari/537.36" etag="sI1ZgMvPZzgAp7H5LaIB" version="22.1.2" type="device">
  <diagram name="PÃ¡gina-1" id="zwIt4ZT9LlGdYYxH_q5l">
    <mxGraphModel dx="1434" dy="839" grid="1" gridSize="10" guides="1" tooltips="1" connect="1" arrows="1" fold="1" page="1" pageScale="1" pageWidth="1169" pageHeight="827" math="0" shadow="0">
      <root>
        <mxCell id="0" />
        <mxCell id="1" parent="0" />
        <mxCell id="vZ2Ym8V51Z4fnAsbYTrX-24" value="" style="group" parent="1" vertex="1" connectable="0">
          <mxGeometry x="160" y="160" width="160" height="80" as="geometry" />
        </mxCell>
        <mxCell id="vZ2Ym8V51Z4fnAsbYTrX-25" value="" style="rounded=1;whiteSpace=wrap;html=1;fillColor=#BFBFBF;fontColor=#333333;strokeColor=#666666;container=0;" parent="vZ2Ym8V51Z4fnAsbYTrX-24" vertex="1">
          <mxGeometry width="160" height="80" as="geometry" />
        </mxCell>
        <mxCell id="vZ2Ym8V51Z4fnAsbYTrX-26" value="" style="endArrow=none;html=1;rounded=0;entryX=0.5;entryY=0;entryDx=0;entryDy=0;exitX=0.5;exitY=1;exitDx=0;exitDy=0;fillColor=#f5f5f5;strokeColor=#666666;" parent="vZ2Ym8V51Z4fnAsbYTrX-24" source="vZ2Ym8V51Z4fnAsbYTrX-25" target="vZ2Ym8V51Z4fnAsbYTrX-25" edge="1">
          <mxGeometry width="50" height="50" relative="1" as="geometry">
            <mxPoint x="10" y="440" as="sourcePoint" />
            <mxPoint x="60" y="390" as="targetPoint" />
          </mxGeometry>
        </mxCell>
        <mxCell id="vZ2Ym8V51Z4fnAsbYTrX-27" value="" style="ellipse;whiteSpace=wrap;html=1;aspect=fixed;fillColor=#000000;container=0;" parent="vZ2Ym8V51Z4fnAsbYTrX-24" vertex="1">
          <mxGeometry x="35" y="35" width="10" height="10" as="geometry" />
        </mxCell>
        <mxCell id="vZ2Ym8V51Z4fnAsbYTrX-28" value="" style="ellipse;whiteSpace=wrap;html=1;aspect=fixed;fillColor=#000000;" parent="vZ2Ym8V51Z4fnAsbYTrX-24" vertex="1">
          <mxGeometry x="116" y="35" width="10" height="10" as="geometry" />
        </mxCell>
        <mxCell id="vZ2Ym8V51Z4fnAsbYTrX-38" value="" style="group" parent="1" vertex="1" connectable="0">
          <mxGeometry x="160" y="320" width="80" height="80" as="geometry" />
        </mxCell>
        <mxCell id="vZ2Ym8V51Z4fnAsbYTrX-36" value="" style="rounded=1;whiteSpace=wrap;html=1;" parent="vZ2Ym8V51Z4fnAsbYTrX-38" vertex="1">
          <mxGeometry width="80" height="80" as="geometry" />
        </mxCell>
        <mxCell id="vZ2Ym8V51Z4fnAsbYTrX-37" value="&lt;font style=&quot;font-size: 24px;&quot;&gt;a&lt;/font&gt;" style="text;html=1;strokeColor=none;fillColor=none;align=center;verticalAlign=middle;whiteSpace=wrap;rounded=0;" parent="vZ2Ym8V51Z4fnAsbYTrX-38" vertex="1">
          <mxGeometry x="10" y="25" width="60" height="30" as="geometry" />
        </mxCell>
        <mxCell id="hYa9ANRJxd4RdiM6IrgB-18" style="edgeStyle=orthogonalEdgeStyle;rounded=0;orthogonalLoop=1;jettySize=auto;html=1;entryX=0;entryY=0.5;entryDx=0;entryDy=0;" parent="1" source="hYa9ANRJxd4RdiM6IrgB-1" target="vZ2Ym8V51Z4fnAsbYTrX-25" edge="1">
          <mxGeometry relative="1" as="geometry" />
        </mxCell>
        <mxCell id="hYa9ANRJxd4RdiM6IrgB-1" value="z" style="text;html=1;strokeColor=none;fillColor=none;align=center;verticalAlign=middle;whiteSpace=wrap;rounded=0;fontSize=24;" parent="1" vertex="1">
          <mxGeometry x="20" y="185" width="60" height="30" as="geometry" />
        </mxCell>
        <mxCell id="hYa9ANRJxd4RdiM6IrgB-14" style="edgeStyle=orthogonalEdgeStyle;rounded=0;orthogonalLoop=1;jettySize=auto;html=1;exitX=0.5;exitY=0;exitDx=0;exitDy=0;entryX=0;entryY=0.5;entryDx=0;entryDy=0;" parent="1" source="vZ2Ym8V51Z4fnAsbYTrX-28" edge="1">
          <mxGeometry relative="1" as="geometry">
            <Array as="points">
              <mxPoint x="281" y="200" />
            </Array>
            <mxPoint x="400" y="200" as="targetPoint" />
          </mxGeometry>
        </mxCell>
        <mxCell id="hYa9ANRJxd4RdiM6IrgB-15" value="" style="group" parent="1" vertex="1" connectable="0">
          <mxGeometry x="400" y="320" width="80" height="80" as="geometry" />
        </mxCell>
        <mxCell id="hYa9ANRJxd4RdiM6IrgB-16" value="" style="rounded=1;whiteSpace=wrap;html=1;" parent="hYa9ANRJxd4RdiM6IrgB-15" vertex="1">
          <mxGeometry width="80" height="80" as="geometry" />
        </mxCell>
        <mxCell id="hYa9ANRJxd4RdiM6IrgB-17" value="&lt;font style=&quot;font-size: 24px;&quot;&gt;b&lt;/font&gt;" style="text;html=1;strokeColor=none;fillColor=none;align=center;verticalAlign=middle;whiteSpace=wrap;rounded=0;" parent="hYa9ANRJxd4RdiM6IrgB-15" vertex="1">
          <mxGeometry x="10" y="25" width="60" height="30" as="geometry" />
        </mxCell>
        <mxCell id="hYa9ANRJxd4RdiM6IrgB-39" value="" style="group" parent="1" vertex="1" connectable="0">
          <mxGeometry x="640" y="160" width="160" height="80" as="geometry" />
        </mxCell>
        <mxCell id="hYa9ANRJxd4RdiM6IrgB-40" value="" style="rounded=1;whiteSpace=wrap;html=1;fillColor=#BFBFBF;fontColor=#333333;strokeColor=#666666;container=0;" parent="hYa9ANRJxd4RdiM6IrgB-39" vertex="1">
          <mxGeometry width="160" height="80" as="geometry" />
        </mxCell>
        <mxCell id="hYa9ANRJxd4RdiM6IrgB-41" value="" style="endArrow=none;html=1;rounded=0;entryX=0.5;entryY=0;entryDx=0;entryDy=0;exitX=0.5;exitY=1;exitDx=0;exitDy=0;fillColor=#f5f5f5;strokeColor=#666666;" parent="hYa9ANRJxd4RdiM6IrgB-39" source="hYa9ANRJxd4RdiM6IrgB-40" target="hYa9ANRJxd4RdiM6IrgB-40" edge="1">
          <mxGeometry width="50" height="50" relative="1" as="geometry">
            <mxPoint x="10" y="440" as="sourcePoint" />
            <mxPoint x="60" y="390" as="targetPoint" />
          </mxGeometry>
        </mxCell>
        <mxCell id="hYa9ANRJxd4RdiM6IrgB-43" value="" style="ellipse;whiteSpace=wrap;html=1;aspect=fixed;fillColor=#000000;container=0;" parent="hYa9ANRJxd4RdiM6IrgB-39" vertex="1">
          <mxGeometry x="35" y="35" width="10" height="10" as="geometry" />
        </mxCell>
        <mxCell id="hYa9ANRJxd4RdiM6IrgB-44" value="" style="ellipse;whiteSpace=wrap;html=1;aspect=fixed;fillColor=#000000;" parent="hYa9ANRJxd4RdiM6IrgB-39" vertex="1">
          <mxGeometry x="115" y="35" width="10" height="10" as="geometry" />
        </mxCell>
        <mxCell id="hYa9ANRJxd4RdiM6IrgB-50" value="" style="group" parent="1" vertex="1" connectable="0">
          <mxGeometry x="640" y="320" width="80" height="80" as="geometry" />
        </mxCell>
        <mxCell id="hYa9ANRJxd4RdiM6IrgB-51" value="" style="rounded=1;whiteSpace=wrap;html=1;" parent="hYa9ANRJxd4RdiM6IrgB-50" vertex="1">
          <mxGeometry width="80" height="80" as="geometry" />
        </mxCell>
        <mxCell id="hYa9ANRJxd4RdiM6IrgB-52" value="&lt;font style=&quot;font-size: 24px;&quot;&gt;c&lt;/font&gt;" style="text;html=1;strokeColor=none;fillColor=none;align=center;verticalAlign=middle;whiteSpace=wrap;rounded=0;" parent="hYa9ANRJxd4RdiM6IrgB-50" vertex="1">
          <mxGeometry x="10" y="25" width="60" height="30" as="geometry" />
        </mxCell>
        <mxCell id="hYa9ANRJxd4RdiM6IrgB-57" value="" style="group" parent="1" vertex="1" connectable="0">
          <mxGeometry x="880" y="320" width="80" height="80" as="geometry" />
        </mxCell>
        <mxCell id="hYa9ANRJxd4RdiM6IrgB-58" value="" style="rounded=1;whiteSpace=wrap;html=1;" parent="hYa9ANRJxd4RdiM6IrgB-57" vertex="1">
          <mxGeometry width="80" height="80" as="geometry" />
        </mxCell>
        <mxCell id="hYa9ANRJxd4RdiM6IrgB-59" value="&lt;font style=&quot;font-size: 24px;&quot;&gt;d&lt;/font&gt;" style="text;html=1;strokeColor=none;fillColor=none;align=center;verticalAlign=middle;whiteSpace=wrap;rounded=0;" parent="hYa9ANRJxd4RdiM6IrgB-57" vertex="1">
          <mxGeometry x="10" y="25" width="60" height="30" as="geometry" />
        </mxCell>
        <mxCell id="gKJpjGnk8ECYpNGxUpi5-7" value="" style="group" parent="1" vertex="1" connectable="0">
          <mxGeometry x="400" y="160" width="160" height="80" as="geometry" />
        </mxCell>
        <mxCell id="gKJpjGnk8ECYpNGxUpi5-8" value="" style="rounded=1;whiteSpace=wrap;html=1;fillColor=#BFBFBF;fontColor=#333333;strokeColor=#666666;container=0;" parent="gKJpjGnk8ECYpNGxUpi5-7" vertex="1">
          <mxGeometry width="160" height="80" as="geometry" />
        </mxCell>
        <mxCell id="gKJpjGnk8ECYpNGxUpi5-9" value="" style="endArrow=none;html=1;rounded=0;entryX=0.5;entryY=0;entryDx=0;entryDy=0;exitX=0.5;exitY=1;exitDx=0;exitDy=0;fillColor=#f5f5f5;strokeColor=#666666;" parent="gKJpjGnk8ECYpNGxUpi5-7" source="gKJpjGnk8ECYpNGxUpi5-8" target="gKJpjGnk8ECYpNGxUpi5-8" edge="1">
          <mxGeometry width="50" height="50" relative="1" as="geometry">
            <mxPoint x="10" y="440" as="sourcePoint" />
            <mxPoint x="60" y="390" as="targetPoint" />
          </mxGeometry>
        </mxCell>
        <mxCell id="gKJpjGnk8ECYpNGxUpi5-11" value="" style="ellipse;whiteSpace=wrap;html=1;aspect=fixed;fillColor=#000000;container=0;" parent="gKJpjGnk8ECYpNGxUpi5-7" vertex="1">
          <mxGeometry x="35" y="35" width="10" height="10" as="geometry" />
        </mxCell>
        <mxCell id="gKJpjGnk8ECYpNGxUpi5-12" value="" style="ellipse;whiteSpace=wrap;html=1;aspect=fixed;fillColor=#000000;" parent="gKJpjGnk8ECYpNGxUpi5-7" vertex="1">
          <mxGeometry x="116" y="35" width="10" height="10" as="geometry" />
        </mxCell>
        <mxCell id="gKJpjGnk8ECYpNGxUpi5-14" style="edgeStyle=orthogonalEdgeStyle;rounded=0;orthogonalLoop=1;jettySize=auto;html=1;entryX=0;entryY=0.5;entryDx=0;entryDy=0;" parent="1" source="gKJpjGnk8ECYpNGxUpi5-12" target="hYa9ANRJxd4RdiM6IrgB-40" edge="1">
          <mxGeometry relative="1" as="geometry" />
        </mxCell>
        <mxCell id="gKJpjGnk8ECYpNGxUpi5-15" value="" style="group" parent="1" vertex="1" connectable="0">
          <mxGeometry x="880" y="160" width="160" height="80" as="geometry" />
        </mxCell>
        <mxCell id="gKJpjGnk8ECYpNGxUpi5-16" value="" style="rounded=1;whiteSpace=wrap;html=1;fillColor=#BFBFBF;fontColor=#333333;strokeColor=#666666;container=0;" parent="gKJpjGnk8ECYpNGxUpi5-15" vertex="1">
          <mxGeometry width="160" height="80" as="geometry" />
        </mxCell>
        <mxCell id="gKJpjGnk8ECYpNGxUpi5-17" value="" style="endArrow=none;html=1;rounded=0;entryX=0.5;entryY=0;entryDx=0;entryDy=0;exitX=0.5;exitY=1;exitDx=0;exitDy=0;fillColor=#f5f5f5;strokeColor=#666666;" parent="gKJpjGnk8ECYpNGxUpi5-15" source="gKJpjGnk8ECYpNGxUpi5-16" target="gKJpjGnk8ECYpNGxUpi5-16" edge="1">
          <mxGeometry width="50" height="50" relative="1" as="geometry">
            <mxPoint x="10" y="440" as="sourcePoint" />
            <mxPoint x="60" y="390" as="targetPoint" />
          </mxGeometry>
        </mxCell>
        <mxCell id="gKJpjGnk8ECYpNGxUpi5-19" value="" style="ellipse;whiteSpace=wrap;html=1;aspect=fixed;fillColor=#000000;container=0;" parent="gKJpjGnk8ECYpNGxUpi5-15" vertex="1">
          <mxGeometry x="35" y="35" width="10" height="10" as="geometry" />
        </mxCell>
        <mxCell id="gKJpjGnk8ECYpNGxUpi5-20" value="" style="ellipse;whiteSpace=wrap;html=1;aspect=fixed;fillColor=#000000;" parent="gKJpjGnk8ECYpNGxUpi5-15" vertex="1">
          <mxGeometry x="115" y="35" width="10" height="10" as="geometry" />
        </mxCell>
        <mxCell id="gKJpjGnk8ECYpNGxUpi5-21" style="edgeStyle=orthogonalEdgeStyle;rounded=0;orthogonalLoop=1;jettySize=auto;html=1;entryX=0;entryY=0.5;entryDx=0;entryDy=0;" parent="1" source="gKJpjGnk8ECYpNGxUpi5-20" target="vZ2Ym8V51Z4fnAsbYTrX-25" edge="1">
          <mxGeometry relative="1" as="geometry">
            <Array as="points">
              <mxPoint x="1001" y="120" />
              <mxPoint x="120" y="120" />
              <mxPoint x="120" y="200" />
            </Array>
          </mxGeometry>
        </mxCell>
        <mxCell id="-StespkqDNQLjx7aALbL-1" style="edgeStyle=orthogonalEdgeStyle;rounded=0;orthogonalLoop=1;jettySize=auto;html=1;entryX=0.5;entryY=0;entryDx=0;entryDy=0;" edge="1" parent="1" source="vZ2Ym8V51Z4fnAsbYTrX-27" target="vZ2Ym8V51Z4fnAsbYTrX-36">
          <mxGeometry relative="1" as="geometry" />
        </mxCell>
        <mxCell id="-StespkqDNQLjx7aALbL-2" style="edgeStyle=orthogonalEdgeStyle;rounded=0;orthogonalLoop=1;jettySize=auto;html=1;entryX=0.5;entryY=0;entryDx=0;entryDy=0;" edge="1" parent="1" source="gKJpjGnk8ECYpNGxUpi5-11" target="hYa9ANRJxd4RdiM6IrgB-16">
          <mxGeometry relative="1" as="geometry" />
        </mxCell>
        <mxCell id="-StespkqDNQLjx7aALbL-4" style="edgeStyle=orthogonalEdgeStyle;rounded=0;orthogonalLoop=1;jettySize=auto;html=1;entryX=0.5;entryY=0;entryDx=0;entryDy=0;" edge="1" parent="1" source="hYa9ANRJxd4RdiM6IrgB-43" target="hYa9ANRJxd4RdiM6IrgB-51">
          <mxGeometry relative="1" as="geometry" />
        </mxCell>
        <mxCell id="-StespkqDNQLjx7aALbL-5" style="edgeStyle=orthogonalEdgeStyle;rounded=0;orthogonalLoop=1;jettySize=auto;html=1;entryX=0.5;entryY=0;entryDx=0;entryDy=0;" edge="1" parent="1" source="gKJpjGnk8ECYpNGxUpi5-19" target="hYa9ANRJxd4RdiM6IrgB-58">
          <mxGeometry relative="1" as="geometry" />
        </mxCell>
        <mxCell id="-StespkqDNQLjx7aALbL-6" style="edgeStyle=orthogonalEdgeStyle;rounded=0;orthogonalLoop=1;jettySize=auto;html=1;entryX=0;entryY=0.5;entryDx=0;entryDy=0;" edge="1" parent="1" source="hYa9ANRJxd4RdiM6IrgB-44" target="gKJpjGnk8ECYpNGxUpi5-16">
          <mxGeometry relative="1" as="geometry" />
        </mxCell>
      </root>
    </mxGraphModel>
  </diagram>
</mxfile>
